<?xml version="1.0" encoding="UTF-8"?>
<svg xmlns="http://www.w3.org/2000/svg" xmlns:xlink="http://www.w3.org/1999/xlink" width="145.69pt" height="45.08pt" viewBox="0 0 145.69 45.08" version="1.1">
<defs>
<clipPath id="clip1">
  <path d="M 28 20 L 45 20 L 45 45.078125 L 28 45.078125 Z M 28 20 "/>
</clipPath>
<clipPath id="clip2">
  <path d="M 126 13 L 145.691406 13 L 145.691406 32 L 126 32 Z M 126 13 "/>
</clipPath>
</defs>
<g id="surface1">
<path style=" stroke:none;fill-rule:nonzero;fill:rgb(26.298523%,68.598938%,28.599548%);fill-opacity:1;" d="M 47.386719 7.515625 C 47.992188 11.339844 42.988281 16.917969 37.097656 19.023438 C 36.214844 15.597656 34.101563 12.445313 30.984375 10.210938 C 30.546875 9.933594 30.09375 9.6875 29.625 9.484375 L 29.625 4.097656 C 30.671875 3.777344 31.84375 3.515625 33.140625 3.316406 C 40.089844 2.414063 46.507813 2.972656 47.386719 7.515625 M 29.625 19.820313 C 30.527344 19.953125 31.488281 20 32.484375 19.945313 C 32.101563 17.789063 31.128906 15.976563 29.625 14.722656 Z M 29.625 13.878906 C 31.511719 15.25 32.714844 17.355469 33.152344 19.894531 C 33.703125 19.839844 34.265625 19.761719 34.835938 19.644531 C 35.289063 19.558594 35.738281 19.449219 36.1875 19.320313 C 35.386719 16.109375 33.402344 13.167969 30.421875 11.035156 C 30.164063 10.871094 29.898438 10.71875 29.625 10.582031 Z M 29.625 9.484375 C 28.304688 8.902344 26.855469 8.609375 25.300781 8.609375 C 24.5625 8.609375 23.808594 8.679688 23.0625 8.808594 C 24.117188 6.765625 26.222656 5.132813 29.625 4.097656 Z M 29.625 10.582031 L 29.625 13.878906 C 29.355469 13.6875 29.074219 13.507813 28.78125 13.34375 C 27.574219 12.667969 26.277344 12.328125 24.921875 12.328125 C 24.007813 12.328125 23.109375 12.484375 22.238281 12.773438 C 22.203125 11.769531 22.320313 10.816406 22.601563 9.925781 C 23.507813 9.714844 24.417969 9.605469 25.300781 9.605469 C 26.878906 9.605469 28.332031 9.933594 29.625 10.582031 M 29.625 14.722656 C 29.265625 14.421875 28.875 14.152344 28.457031 13.921875 C 27.351563 13.308594 26.160156 12.996094 24.921875 12.996094 C 24.023438 12.996094 23.140625 13.15625 22.285156 13.457031 C 22.300781 13.589844 22.316406 13.722656 22.335938 13.855469 C 22.84375 16.992188 25.707031 19.242188 29.625 19.820313 L 29.625 14.722656 "/>
<path style=" stroke:none;fill-rule:nonzero;fill:rgb(86.698914%,4.699707%,50.19989%);fill-opacity:1;" d="M 17.703125 35.5 C 19.5625 36.304688 21.660156 36.757813 23.757813 36.757813 C 23.84375 36.757813 23.929688 36.757813 24.015625 36.753906 C 22.636719 38.269531 20.582031 39.480469 17.703125 40.539063 Z M 17.703125 34.410156 C 19.527344 35.269531 21.640625 35.761719 23.757813 35.761719 C 24.117188 35.761719 24.472656 35.746094 24.824219 35.71875 C 25.398438 34.847656 25.792969 33.886719 26.027344 32.8125 C 25.523438 32.894531 25 32.941406 24.457031 32.941406 C 22.671875 32.941406 20.832031 32.445313 19.140625 31.519531 C 18.617188 31.199219 18.140625 30.847656 17.703125 30.46875 Z M 17.703125 29.578125 L 17.703125 25.945313 C 22.28125 26.535156 26.292969 28.46875 26.148438 32.109375 C 25.605469 32.21875 25.042969 32.273438 24.457031 32.273438 C 22.78125 32.273438 21.054688 31.8125 19.472656 30.945313 C 18.808594 30.535156 18.21875 30.074219 17.703125 29.578125 M 14.128906 41.667969 C 5.203125 44.242188 1.105469 40.359375 0.101563 36.691406 C -0.695313 31.898438 3.199219 27.699219 9.574219 26.257813 C 9.839844 26.195313 10.113281 26.144531 10.394531 26.09375 C 10.839844 28.453125 11.921875 30.507813 13.128906 32.179688 L 13.148438 32.203125 C 14.28125 33.574219 15.875 34.707031 17.703125 35.5 L 17.703125 40.539063 C 16.628906 40.933594 15.441406 41.308594 14.128906 41.667969 M 17.703125 25.945313 C 16.957031 25.847656 16.191406 25.785156 15.425781 25.761719 C 15.796875 27.175781 16.566406 28.476563 17.703125 29.578125 Z M 17.703125 30.46875 C 16.191406 29.15625 15.195313 27.53125 14.765625 25.746094 C 13.609375 25.734375 12.46875 25.800781 11.394531 25.941406 C 11.75 27.847656 12.597656 29.738281 13.929688 31.578125 C 14.882813 32.730469 16.195313 33.695313 17.703125 34.410156 L 17.703125 30.46875 "/>
<path style=" stroke:none;fill-rule:nonzero;fill:rgb(16.099548%,61.599731%,84.698486%);fill-opacity:1;" d="M 15.882813 12.191406 C 17.265625 11.027344 18.867188 10.105469 20.546875 9.492188 C 20.332031 6.871094 19.75 4.511719 18.773438 3.082031 C 17.949219 1.871094 16.964844 1.007813 15.882813 0.507813 Z M 15.882813 23.972656 L 15.882813 20.152344 C 15.949219 19.980469 16.023438 19.8125 16.101563 19.640625 C 17.164063 17.292969 18.726563 15.457031 20.539063 14.3125 C 20.257813 17.84375 19.363281 21.125 17.921875 22.644531 C 17.289063 23.3125 16.601563 23.742188 15.882813 23.972656 M 15.882813 18.574219 L 15.882813 13.523438 C 17.222656 12.253906 18.871094 11.226563 20.609375 10.546875 C 20.65625 11.519531 20.648438 12.519531 20.59375 13.507813 C 18.710938 14.570313 17.0625 16.316406 15.882813 18.574219 M 7.25 19.1875 C 8.117188 20.457031 9.148438 21.582031 10.25 22.441406 C 10.554688 19.679688 11.820313 16.628906 14.628906 13.375 C 15.019531 12.957031 15.441406 12.5625 15.882813 12.191406 L 15.882813 0.507813 C 13.230469 -0.710938 9.957031 0.25 6.816406 3.6875 C 2.386719 8.542969 4.414063 15.023438 7.25 19.1875 M 15.882813 13.523438 L 15.882813 18.574219 C 15.746094 18.832031 15.617188 19.09375 15.492188 19.363281 C 14.757813 20.988281 14.445313 22.625 14.53125 24.175781 C 13.4375 24.171875 12.304688 23.78125 11.214844 23.117188 C 11.402344 20.085938 12.789063 17.027344 15.367188 14.039063 C 15.53125 13.863281 15.703125 13.691406 15.882813 13.523438 M 15.882813 20.152344 L 15.882813 23.972656 C 15.648438 24.046875 15.410156 24.097656 15.175781 24.132813 C 15.109375 22.855469 15.339844 21.511719 15.882813 20.152344 "/>
<g clip-path="url(#clip1)" clip-rule="nonzero">
<path style=" stroke:none;fill-rule:nonzero;fill:rgb(95.698547%,66.699219%,10.998535%);fill-opacity:1;" d="M 41.128906 25.105469 C 40.089844 23.769531 38.847656 22.640625 37.539063 21.890625 C 37.632813 23.585938 37.429688 25.304688 36.902344 26.976563 C 35.894531 29.746094 34.382813 31.988281 32.484375 33.625 L 32.484375 44.441406 C 35.324219 46.019531 38.917969 44.671875 42.230469 40.371094 C 46.386719 34.96875 44.128906 28.957031 41.128906 25.105469 M 32.484375 32.257813 L 32.484375 27.328125 L 32.492188 27.300781 C 33.191406 25.078125 33.445313 22.941406 33.289063 21.011719 C 34.339844 20.792969 35.449219 20.953125 36.535156 21.398438 C 36.691406 23.132813 36.507813 24.914063 35.960938 26.65625 C 35.132813 28.917969 33.953125 30.800781 32.484375 32.257813 M 32.484375 24.476563 L 32.484375 21.265625 C 32.535156 21.246094 32.589844 21.222656 32.640625 21.203125 C 32.714844 22.238281 32.660156 23.335938 32.484375 24.476563 M 32.484375 33.625 C 31.265625 34.671875 29.886719 35.46875 28.375 36 C 28.683594 38.78125 29.386719 41.265625 30.472656 42.664063 C 31.082031 43.445313 31.757813 44.039063 32.484375 44.441406 Z M 32.484375 21.265625 L 32.484375 24.476563 C 32.347656 25.324219 32.144531 26.195313 31.863281 27.082031 C 31.109375 29.046875 29.84375 30.511719 28.21875 31.378906 C 28.359375 27.867188 29.09375 24.554688 30.425781 22.886719 C 31.046875 22.105469 31.742188 21.578125 32.484375 21.265625 M 32.484375 27.328125 L 32.484375 32.257813 C 31.265625 33.460938 29.851563 34.375 28.28125 34.964844 C 28.210938 34.035156 28.183594 33.082031 28.199219 32.136719 C 30.113281 31.230469 31.605469 29.585938 32.484375 27.328125 "/>
</g>
<g clip-path="url(#clip2)" clip-rule="nonzero">
<path style=" stroke:none;fill-rule:nonzero;fill:rgb(61.999512%,61.999512%,62.399292%);fill-opacity:1;" d="M 127.832031 27.71875 C 128.617188 26.90625 139.644531 16.605469 139.644531 16.605469 L 127.355469 16.605469 L 127.355469 13.671875 L 145.371094 13.671875 C 145.371094 15.023438 145.433594 15.960938 145.144531 16.609375 C 145.144531 16.609375 144.890625 17.117188 143.992188 17.878906 C 142.953125 18.949219 132.496094 28.664063 132.496094 28.664063 L 145.6875 28.664063 L 145.6875 31.40625 L 126.722656 31.40625 C 126.679688 29.277344 126.835938 28.816406 127.832031 27.71875 "/>
</g>
<path style=" stroke:none;fill-rule:nonzero;fill:rgb(61.999512%,61.999512%,62.399292%);fill-opacity:1;" d="M 76.261719 27.71875 C 77.050781 26.90625 88.078125 16.605469 88.078125 16.605469 L 75.785156 16.605469 L 75.785156 13.671875 L 93.800781 13.671875 C 93.800781 15.023438 93.863281 15.960938 93.574219 16.609375 C 93.574219 16.609375 93.320313 17.117188 92.421875 17.878906 C 91.386719 18.949219 80.925781 28.664063 80.925781 28.664063 L 94.121094 28.664063 L 94.121094 31.40625 L 75.152344 31.40625 C 75.109375 29.277344 75.269531 28.816406 76.261719 27.71875 "/>
<path style=" stroke:none;fill-rule:nonzero;fill:rgb(61.999512%,61.999512%,62.399292%);fill-opacity:1;" d="M 119.730469 13.671875 L 124.476563 13.671875 L 124.476563 31.40625 L 119.730469 31.40625 L 119.730469 13.671875 "/>
<path style=" stroke:none;fill-rule:nonzero;fill:rgb(61.999512%,61.999512%,62.399292%);fill-opacity:1;" d="M 68.773438 13.65625 L 63.089844 13.65625 L 63.089844 16.613281 L 67.058594 16.613281 C 67.960938 16.613281 68.660156 16.707031 68.660156 17.890625 L 68.660156 21.222656 L 63.089844 21.222656 L 63.089844 24.171875 L 73.066406 24.171875 L 73.066406 17.46875 C 73.066406 15.007813 71.945313 13.65625 68.773438 13.65625 M 63.089844 31.425781 L 72.976563 31.425781 L 72.976563 28.488281 L 63.089844 28.488281 Z M 63.089844 13.65625 L 57.003906 13.65625 C 54.644531 13.65625 52.921875 14.703125 52.921875 17.449219 L 52.921875 26.921875 C 52.921875 29.589844 53.640625 31.425781 57.289063 31.425781 L 63.089844 31.425781 L 63.089844 28.488281 L 60.136719 28.488281 C 57.863281 28.488281 57.519531 27.710938 57.519531 26.8125 L 57.519531 24.171875 L 63.089844 24.171875 L 63.089844 21.222656 L 57.519531 21.222656 L 57.519531 17.890625 C 57.519531 17.234375 57.96875 16.613281 59.074219 16.613281 L 63.089844 16.613281 L 63.089844 13.65625 "/>
<path style=" stroke:none;fill-rule:nonzero;fill:rgb(61.999512%,61.999512%,62.399292%);fill-opacity:1;" d="M 108.886719 30.410156 L 118.28125 13.671875 L 113.539063 13.671875 L 105.484375 27.660156 L 100.457031 13.671875 L 95.710938 13.671875 L 102.082031 30.421875 C 102.292969 30.761719 102.824219 31.40625 103.828125 31.40625 L 107.136719 31.40625 C 108.148438 31.40625 108.679688 30.753906 108.886719 30.410156 "/>
</g>
</svg>
