<?xml version="1.0" encoding="UTF-8" standalone="no"?>
<svg
   width="47.5pt"
   height="45.080002pt"
   viewBox="0 0 47.499999 45.08"
   version="1.1"
   id="svg40"
   sodipodi:docname="icon.svg"
   inkscape:version="1.2.2 (b0a84865, 2022-12-01)"
   xmlns:inkscape="http://www.inkscape.org/namespaces/inkscape"
   xmlns:sodipodi="http://sodipodi.sourceforge.net/DTD/sodipodi-0.dtd"
   xmlns="http://www.w3.org/2000/svg"
   xmlns:svg="http://www.w3.org/2000/svg">
  <sodipodi:namedview
     id="namedview42"
     pagecolor="#ffffff"
     bordercolor="#000000"
     borderopacity="0.25"
     inkscape:showpageshadow="2"
     inkscape:pageopacity="0.0"
     inkscape:pagecheckerboard="0"
     inkscape:deskcolor="#d1d1d1"
     inkscape:document-units="pt"
     showgrid="false"
     inkscape:zoom="3.926353"
     inkscape:cx="43.042488"
     inkscape:cy="31.072092"
     inkscape:window-width="1440"
     inkscape:window-height="640"
     inkscape:window-x="0"
     inkscape:window-y="25"
     inkscape:window-maximized="0"
     inkscape:current-layer="svg40" />
  <defs
     id="defs15">
    <clipPath
       id="clip1">
      <path
         d="M 28,20 H 45 V 45.078125 H 28 Z m 0,0"
         id="path9" />
    </clipPath>
    <clipPath
       id="clip2">
      <path
         d="m 126,13 h 19.69141 V 32 H 126 Z m 0,0"
         id="path12" />
    </clipPath>
  </defs>
  <g
     id="surface1"
     sodipodi:insensitive="true">
    <path
       style="fill:#42ae47;fill-opacity:1;fill-rule:nonzero;stroke:none"
       d="m 47.386719,7.515625 c 0.605469,3.824219 -4.398438,9.402344 -10.289063,11.507813 -0.882812,-3.425782 -2.996093,-6.578125 -6.113281,-8.8125 C 30.546875,9.933594 30.09375,9.6875 29.625,9.484375 V 4.097656 c 1.046875,-0.320312 2.21875,-0.582031 3.515625,-0.78125 6.949219,-0.902343 13.367188,-0.34375 14.246094,4.199219 M 29.625,19.820313 c 0.902344,0.132812 1.863281,0.179687 2.859375,0.125 -0.382812,-2.15625 -1.355469,-3.96875 -2.859375,-5.222657 z m 0,-5.941407 c 1.886719,1.371094 3.089844,3.476563 3.527344,6.015625 0.550781,-0.05469 1.113281,-0.132812 1.683594,-0.25 0.453125,-0.08594 0.902343,-0.195312 1.351562,-0.324218 C 35.386719,16.109375 33.402344,13.167969 30.421875,11.035156 30.164063,10.871094 29.898438,10.71875 29.625,10.582031 Z m 0,-4.394531 c -1.320312,-0.582031 -2.769531,-0.875 -4.324219,-0.875 -0.738281,0 -1.492187,0.070313 -2.238281,0.199219 1.054688,-2.042969 3.160156,-3.675781 6.5625,-4.710938 z m 0,1.097656 v 3.296875 C 29.355469,13.6875 29.074219,13.507813 28.78125,13.34375 c -1.207031,-0.675781 -2.503906,-1.015625 -3.859375,-1.015625 -0.914062,0 -1.8125,0.15625 -2.683594,0.445313 -0.03516,-1.003907 0.08203,-1.957032 0.363282,-2.847657 0.90625,-0.210937 1.816406,-0.320312 2.699218,-0.320312 1.578125,0 3.03125,0.328125 4.324219,0.976562 m 0,4.140625 c -0.359375,-0.300781 -0.75,-0.570312 -1.167969,-0.800781 -1.105468,-0.613281 -2.296875,-0.925781 -3.535156,-0.925781 -0.898437,0 -1.78125,0.160156 -2.636719,0.460937 0.01563,0.132813 0.03125,0.265625 0.05078,0.398438 0.507812,3.136719 3.371093,5.386719 7.289062,5.964844 v -5.097657"
       id="path17" />
    <path
       style="fill:#dc0a7f;fill-opacity:1;fill-rule:nonzero;stroke:none"
       d="m 17.703125,35.5 c 1.859375,0.804688 3.957031,1.257813 6.054688,1.257813 0.08594,0 0.171875,0 0.257812,-0.0039 -1.378906,1.515625 -3.433594,2.726563 -6.3125,3.785157 z m 0,-1.089844 c 1.824219,0.859375 3.9375,1.351563 6.054688,1.351563 0.359375,0 0.714843,-0.01563 1.066406,-0.04297 0.574219,-0.871094 0.96875,-1.832031 1.203125,-2.90625 -0.503906,0.08203 -1.027344,0.128906 -1.570313,0.128906 -1.785156,0 -3.625,-0.496093 -5.316406,-1.421875 -0.523437,-0.320312 -1,-0.671875 -1.4375,-1.050781 z m 0,-4.832031 v -3.632812 c 4.578125,0.589843 8.589844,2.523437 8.445313,6.164062 -0.542969,0.109375 -1.105469,0.164063 -1.691407,0.164063 -1.675781,0 -3.402343,-0.460938 -4.984375,-1.328125 -0.664062,-0.410157 -1.253906,-0.871094 -1.769531,-1.367188 M 14.128906,41.667969 C 5.203125,44.242188 1.105469,40.359375 0.101563,36.691406 -0.695313,31.898438 3.199219,27.699219 9.574219,26.257813 c 0.265625,-0.0625 0.539062,-0.113282 0.820312,-0.164063 0.445313,2.359375 1.527344,4.414063 2.734375,6.085938 l 0.01953,0.02344 C 14.28125,33.574219 15.875,34.707031 17.703125,35.5 v 5.039063 c -1.074219,0.394531 -2.261719,0.769531 -3.574219,1.128906 m 3.574219,-15.722656 c -0.746094,-0.09766 -1.511719,-0.160157 -2.277344,-0.183594 0.371094,1.414062 1.140625,2.714844 2.277344,3.816406 z m 0,4.523437 c -1.511719,-1.3125 -2.507812,-2.9375 -2.9375,-4.722656 -1.15625,-0.01172 -2.296875,0.05469 -3.371094,0.195312 0.355469,1.90625 1.203125,3.796875 2.535157,5.636719 0.953125,1.152344 2.265625,2.117188 3.773437,2.832031 V 30.46875"
       id="path19" />
    <path
       style="fill:#289cd7;fill-opacity:1;fill-rule:nonzero;stroke:none"
       d="M 15.882813,12.191406 C 17.265625,11.027344 18.867188,10.105469 20.546875,9.492188 20.332031,6.871094 19.75,4.511719 18.773438,3.082031 17.949219,1.871094 16.964844,1.007813 15.882813,0.507813 Z m 0,11.78125 v -3.820312 c 0.06641,-0.171875 0.140625,-0.339844 0.21875,-0.511719 1.0625,-2.347656 2.625,-4.183594 4.4375,-5.328125 -0.28125,3.53125 -1.175782,6.8125 -2.617188,8.332031 -0.632812,0.667969 -1.320312,1.097657 -2.039062,1.328125 m 0,-5.398437 v -5.050781 c 1.339843,-1.269532 2.988281,-2.296875 4.726562,-2.976563 0.04687,0.972656 0.03906,1.972656 -0.01563,2.960938 -1.882812,1.0625 -3.53125,2.808593 -4.710937,5.066406 M 7.25,19.1875 c 0.867188,1.269531 1.898438,2.394531 3,3.253906 0.304688,-2.761718 1.570313,-5.8125 4.378906,-9.066406 0.390625,-0.417969 0.8125,-0.8125 1.253907,-1.183594 V 0.507813 C 13.230469,-0.710938 9.957031,0.25 6.816406,3.6875 2.386719,8.542969 4.414063,15.023438 7.25,19.1875 m 8.632813,-5.664062 v 5.050781 c -0.136719,0.257812 -0.265625,0.519531 -0.390625,0.789062 -0.734375,1.625 -1.046875,3.261719 -0.960938,4.8125 -1.09375,-0.0039 -2.226562,-0.394531 -3.316406,-1.058593 0.1875,-3.03125 1.574219,-6.089844 4.152344,-9.078125 0.164062,-0.175782 0.335937,-0.347657 0.515625,-0.515625 m 0,6.628906 v 3.820312 c -0.234375,0.07422 -0.472657,0.125 -0.707032,0.160157 -0.06641,-1.277344 0.164063,-2.621094 0.707032,-3.980469"
       id="path21" />
    <g
       clip-path="url(#clip1)"
       clip-rule="nonzero"
       id="g25">
      <path
         style="fill:#f3a819;fill-opacity:1;fill-rule:nonzero;stroke:none"
         d="m 41.128906,25.105469 c -1.039062,-1.335938 -2.28125,-2.464844 -3.589843,-3.214844 0.09375,1.695313 -0.109375,3.414063 -0.636719,5.085938 -1.007813,2.769531 -2.519531,5.011718 -4.417969,6.648437 v 10.816406 c 2.839844,1.578125 6.433594,0.230469 9.746094,-4.070312 4.15625,-5.402344 1.898437,-11.414063 -1.101563,-15.265625 m -8.644531,7.152344 v -4.929688 l 0.0078,-0.02734 c 0.699218,-2.222656 0.953125,-4.359375 0.796875,-6.289062 1.050781,-0.21875 2.160156,-0.05859 3.246093,0.386719 0.15625,1.734375 -0.02734,3.515625 -0.574218,5.257812 -0.828125,2.261719 -2.007813,4.144531 -3.476563,5.601563 m 0,-7.78125 v -3.210938 c 0.05078,-0.01953 0.105469,-0.04297 0.15625,-0.0625 0.07422,1.035156 0.01953,2.132813 -0.15625,3.273438 m 0,9.148437 C 31.265625,34.671875 29.886719,35.46875 28.375,36 c 0.308594,2.78125 1.011719,5.265625 2.097656,6.664063 0.609375,0.78125 1.285157,1.375 2.011719,1.777343 z m 0,-12.359375 v 3.210938 c -0.136719,0.847656 -0.339844,1.71875 -0.621094,2.605468 -0.753906,1.964844 -2.019531,3.429688 -3.644531,4.296875 0.140625,-3.511718 0.875,-6.824218 2.207031,-8.492187 0.621094,-0.78125 1.316407,-1.308594 2.058594,-1.621094 m 0,6.0625 v 4.929688 c -1.21875,1.203125 -2.632812,2.117187 -4.203125,2.707031 -0.07031,-0.929688 -0.09766,-1.882813 -0.08203,-2.828125 1.914062,-0.90625 3.40625,-2.550781 4.285156,-4.808594"
         id="path23" />
    </g>
  </g>
</svg>
